<?xml version="1.0" standalone="no"?><!DOCTYPE svg PUBLIC "-//W3C//DTD SVG 1.1//EN" "http://www.w3.org/Graphics/SVG/1.1/DTD/svg11.dtd"><svg t="1656665044281" class="icon" viewBox="0 0 1024 1024" version="1.1" xmlns="http://www.w3.org/2000/svg" p-id="3594" xmlns:xlink="http://www.w3.org/1999/xlink" width="80" height="80"><defs><style type="text/css">@font-face { font-family: feedback-iconfont; src: url("//at.alicdn.com/t/font_1031158_u69w8yhxdu.woff2?t=1630033759944") format("woff2"), url("//at.alicdn.com/t/font_1031158_u69w8yhxdu.woff?t=1630033759944") format("woff"), url("//at.alicdn.com/t/font_1031158_u69w8yhxdu.ttf?t=1630033759944") format("truetype"); }
</style></defs><path d="M498.346667 824.32L201.386667 527.36c-11.946667-11.946667-3.413333-34.133333 13.653333-34.133333H375.466667c11.946667 0 20.48-8.533333 20.48-20.48V54.613333c0-11.946667 8.533333-20.48 20.48-20.48h189.44c11.946667 0 20.48 8.533333 20.48 20.48v418.133334c0 11.946667 8.533333 20.48 20.48 20.48h160.426666c18.773333 0 27.306667 22.186667 13.653334 34.133333L525.653333 824.32c-6.826667 6.826667-20.48 6.826667-27.306666 0zM916.48 989.866667H107.52c-18.773333 0-35.84-15.36-35.84-35.84 0-18.773333 15.36-35.84 35.84-35.84h810.666667c18.773333 0 35.84 15.36 35.84 35.84-1.706667 20.48-17.066667 35.84-37.546667 35.84z" fill="#0064c8" p-id="3595"></path></svg>